# xmcd
#
# Track frame offsets: 
#        182
#        19615
#        31242
#        49622
#        64737
#        71897
#        96972
#        109527
#        111865
#        136195
#        146755
#        153620
#        173300
#        192967
#        207085
#        216380
#
# Disc length: 3019 seconds
#
# Revision: 1
# Processed by: cddbd v1.5.2PL0 Copyright (c) Steve Scherf et al.
# Submitted via: ExactAudioCopy v1.0b4
#
DISCID=e10bc910
DTITLE=Karl Richter - Der Messias CD 1
DYEAR=1965
DGENRE=Klassik
TTITLE0=Sinfonia. Grave - Allegro Moderato
TTITLE1=Arioso (Tenor): Tröste dich, mein Volk
TTITLE2=Arie (Tenor): Alle Tale macht hoch erhaben
TTITLE3=Chor: Denn Die Herrlichkeit Gottes
TTITLE4=Rezitativ (Bach): So spricht der Herr, Gott Zebaoth
TTITLE5=Arie (Alt): Doch wer wird ertragen den Tag seiner Ankunft
TTITLE6=Chor: Und er wird reinigen und läutern das Volk des Bundes
TTITLE7=Rezitativ (Alt): Denn sieh, der Verheißene des Herrn erscheint
TTITLE8=Arie (Alt): O du, die Wonne verkündet in Zion
TTITLE9=Chor: O du, die Wonne verkündet in Zion
TTITLE10=Rezitativ (Baß): Denn blick auf: Finsternis deckt alle Welt
TTITLE11=Arie (Baß): Das Volk, das da wandelt im Dunkel
TTITLE12=Chor: Denn Es Ist Uns Ein Kind Geboren
TTITLE13=Hirtenmusik. Larghetto E Mezzo Piano
TTITLE14=Rezitativ (Sopran): Es waren Hirten beisammen auf dem Felde
TTITLE15=Chor: Ehre sei Gott in der Höhe
EXTD=
EXTT0=
EXTT1=
EXTT2=
EXTT3=
EXTT4=
EXTT5=
EXTT6=
EXTT7=
EXTT8=
EXTT9=
EXTT10=
EXTT11=
EXTT12=
EXTT13=
EXTT14=
EXTT15=
PLAYORDER=
